<svg width="125" height="34" viewBox="0 0 125 34" fill="none" xmlns="http://www.w3.org/2000/svg">
<g clip-path="url(#clip0_309_52732)">
<path d="M16.3065 1.19531L0.158203 20.2312H14.6917L13.0769 32.9219L29.2253 13.8859H14.6917L16.3065 1.19531Z" fill="#7F94A8"/>
<path d="M52.0884 14.4644V20.3364H43.4661V28.3796H36.6914V4.53516H53.8998V10.4073H43.4661V14.4644H52.0884Z" fill="#7F94A8"/>
<path d="M63.3487 4.53516V28.3796H57.1172V4.53516H63.3487Z" fill="#7F94A8"/>
<path d="M73.6295 9.69531C74.5954 9.69531 75.5373 9.90883 76.4551 10.3359C77.3974 10.7393 78.1699 11.2611 78.7738 11.9018V10.2292H85.0057V28.3794H78.7738V25.3542C78.3151 26.3506 77.6147 27.1928 76.6728 27.881C75.7309 28.5691 74.5954 28.913 73.2673 28.913C71.8905 28.913 70.5982 28.5691 69.3907 27.881C68.1833 27.1928 67.1928 26.1372 66.4201 24.7135C65.6714 23.2665 65.2969 21.4516 65.2969 19.2686C65.2969 17.2282 65.6714 15.4962 66.4201 14.0727C67.1928 12.6492 68.2074 11.5696 69.4632 10.8341C70.7433 10.0749 72.1319 9.69531 73.6295 9.69531ZM74.9338 15.6742C74.0402 15.6742 73.2914 16.0301 72.6875 16.7418C72.1078 17.4536 71.818 18.2958 71.818 19.2686C71.818 20.2414 72.1199 21.0599 72.7237 21.7243C73.3276 22.3886 74.1247 22.7207 75.1149 22.7207C75.646 22.7207 76.1895 22.5903 76.7451 22.3294C77.3004 22.0445 77.7716 21.6294 78.1578 21.0837C78.5686 20.5141 78.7738 19.7906 78.7738 18.9127V17.1689C78.2426 16.7418 77.6387 16.3859 76.9624 16.1012C76.3102 15.8165 75.6339 15.6742 74.9338 15.6742Z" fill="#7F94A8"/>
<path d="M94.6714 9.69531C95.8795 9.69531 96.9903 9.87329 98.0045 10.2292C99.043 10.5613 99.8767 11.024 100.505 11.6171V16.4216C99.8767 16.0419 99.1639 15.6861 98.3671 15.3539C97.5696 14.998 96.7124 14.82 95.7948 14.82C95.2155 14.82 94.6958 14.9387 94.2365 15.176C93.8016 15.3895 93.585 15.7335 93.585 16.208C93.585 16.5402 93.7177 16.7893 93.983 16.9554C94.2491 17.1214 94.768 17.2994 95.5412 17.4892L96.6637 17.7739C99.8767 18.5806 101.483 20.2769 101.483 22.863C101.483 24.0495 101.12 25.1052 100.396 26.0305C99.6953 26.932 98.7651 27.6438 97.6065 28.1659C96.4706 28.6639 95.239 28.913 93.9108 28.913C92.5339 28.913 91.2536 28.7232 90.0707 28.3438C88.8869 27.9403 87.8727 27.4541 87.0273 26.8846V22.1156C87.8971 22.6377 88.8751 23.0765 89.9624 23.4325C91.0731 23.7883 92.0629 23.9665 92.9327 23.9665C93.6329 23.9665 94.14 23.8831 94.454 23.7171C94.7923 23.5511 94.9611 23.2547 94.9611 22.8275C94.9611 22.4954 94.768 22.246 94.3818 22.08C93.9956 21.8903 93.4398 21.6769 92.7153 21.4394L90.8674 20.8701C89.5149 20.4667 88.525 19.8381 87.8971 18.9839C87.2691 18.1061 86.9551 17.0384 86.9551 15.781C86.9551 14.5235 87.2926 13.444 87.9693 12.5424C88.6459 11.6408 89.5636 10.9409 90.7222 10.4427C91.9059 9.94446 93.2223 9.69531 94.6714 9.69531Z" fill="#7F94A8"/>
<path d="M114.335 9.69552C116.219 9.69552 117.753 10.3242 118.936 11.5817C120.144 12.8391 120.747 14.7016 120.747 17.1691V28.3796H114.516L114.48 18.13C114.48 17.2284 114.226 16.5997 113.719 16.2438C113.212 15.8642 112.644 15.6744 112.016 15.6744C111.34 15.6744 110.773 15.8524 110.313 16.2082C109.855 16.5404 109.456 16.9437 109.118 17.4183V28.3796H102.887V4.53516H109.118V12.5782C109.698 11.7953 110.398 11.1191 111.219 10.5497C112.065 9.98022 113.103 9.69552 114.335 9.69552Z" fill="#7F94A8"/>
<path d="M120.433 4.67383V5.43102H119.506V7.73479H118.625V5.43102H117.697V4.67383H120.433Z" fill="#7F94A8"/>
<path d="M124.051 4.62695V7.74759H123.17V6.23318L122.525 6.94449H122.261L121.616 6.23318V7.74759H120.734V4.62695H121.046L122.393 5.95781L123.74 4.62695H124.051Z" fill="#7F94A8"/>
</g>
<defs>
<clipPath id="clip0_309_52732">
<rect width="124.254" height="32.9892" fill="white" transform="translate(0.158203 0.49707)"/>
</clipPath>
</defs>
</svg>
