<svg width="108" height="33" viewBox="0 0 108 33" fill="none" xmlns="http://www.w3.org/2000/svg">
<g clip-path="url(#clip0_309_52714)">
<path d="M63.9531 29.4416C63.9531 29.7935 64.2523 30.0742 64.6106 30.0572L69.9194 29.808C70.2539 29.7922 70.5169 29.5212 70.5169 29.1925V12.7121C70.5169 12.362 70.2204 12.0822 69.8643 12.0962L64.5556 12.3048C64.2188 12.318 63.9531 12.5899 63.9531 12.9208V29.4416Z" fill="#7F94A8"/>
<path d="M64.7801 9.01156C65.43 9.65023 66.2426 9.96956 67.2181 9.96956C68.2432 9.96956 69.0683 9.65023 69.6936 9.01156C70.3438 8.34836 70.669 7.52546 70.669 6.5429C70.669 5.58491 70.3438 4.77431 69.6936 4.11107C69.0683 3.44783 68.2432 3.11621 67.2181 3.11621C66.2426 3.11621 65.43 3.44783 64.7801 4.11107C64.1298 4.77431 63.8047 5.58491 63.8047 6.5429C63.8047 7.52546 64.1298 8.34836 64.7801 9.01156Z" fill="#7F94A8"/>
<path fill-rule="evenodd" clip-rule="evenodd" d="M48.1593 19.5138V28.4715C48.1593 28.7681 47.9442 29.0229 47.6473 29.0774L42.1882 30.0795C41.8022 30.1507 41.4453 29.8594 41.4453 29.4737V4.58134C41.4453 4.24084 41.7266 3.96484 42.0732 3.96484H52.7731C54.5733 3.96484 56.1489 4.29646 57.4991 4.9597C58.8745 5.6229 59.9496 6.53177 60.7247 7.68629C61.4997 8.84083 61.8875 10.1918 61.8875 11.7393C61.8875 13.2869 61.4872 14.6501 60.6872 15.8293C59.9121 16.9837 58.8243 17.8926 57.4241 18.5558C56.8185 18.8321 56.1682 19.0487 55.4731 19.2055L62.5937 28.7259C62.9403 29.1894 62.5092 29.8256 61.9403 29.6902L56.0546 28.2883C55.9208 28.2563 55.8019 28.1825 55.7151 28.0774L48.6396 19.5138H48.1593ZM48.1593 14.7975H51.8352C52.9355 14.7975 53.7732 14.5396 54.3483 14.0238C54.9485 13.4834 55.2486 12.7587 55.2486 11.8499C55.2486 10.9656 54.9485 10.2533 54.3483 9.71282C53.7732 9.1478 52.9355 8.86541 51.8352 8.86541H48.1593V14.7975Z" fill="#7F94A8"/>
<path d="M79.4226 30.6038C78.2973 30.6038 77.1845 30.4562 76.0843 30.1614C75.0091 29.8666 73.9961 29.4738 73.0462 28.9826C72.3194 28.5771 71.6776 28.1268 71.1203 27.6307C70.869 27.4066 70.8722 27.0245 71.1096 26.7861L73.7935 24.094C74.0413 23.8455 74.4474 23.8502 74.7176 24.0751C75.21 24.485 75.7654 24.8189 76.3844 25.0768C77.2346 25.4207 78.1345 25.5926 79.0848 25.5926C79.635 25.5926 80.0478 25.519 80.3228 25.3715C80.623 25.2242 80.7728 25.0154 80.7728 24.7452C80.7728 24.3522 80.5604 24.0574 80.135 23.8609C79.7352 23.6398 79.1976 23.4556 78.5223 23.3082C77.8719 23.1363 77.1845 22.9397 76.4596 22.7186C75.7341 22.473 75.0342 22.1537 74.3588 21.7606C73.6835 21.3676 73.1334 20.815 72.7085 20.1026C72.3082 19.3903 72.1083 18.4813 72.1083 17.376C72.1083 16.2215 72.421 15.2144 73.0462 14.3546C73.696 13.4704 74.5963 12.7825 75.7467 12.2913C76.897 11.7755 78.2472 11.5176 79.7974 11.5176C81.373 11.5176 82.8731 11.7878 84.2984 12.3281C85.511 12.7669 86.7284 13.6168 87.6041 14.5109C87.8484 14.7611 87.8005 15.1592 87.5201 15.3709L84.416 17.7167C84.1548 17.914 83.7877 17.874 83.543 17.6576C83.1168 17.2807 82.7138 17.0844 82.1605 16.897C81.4356 16.6268 80.7728 16.4917 80.1726 16.4917C79.5974 16.4917 79.1851 16.5777 78.9351 16.7497C78.685 16.897 78.5598 17.1059 78.5598 17.376C78.5598 17.6954 78.7598 17.9533 79.16 18.1498C79.5849 18.3463 80.1225 18.5306 80.7728 18.7025C81.4481 18.8498 82.1355 19.0464 82.836 19.2921C83.5609 19.5377 84.2484 19.8816 84.899 20.3237C85.574 20.7413 86.1113 21.3063 86.5118 22.0186C86.9366 22.731 87.149 23.6521 87.149 24.782C87.149 26.5752 86.4488 27.9998 85.0493 29.056C83.6486 30.088 81.7728 30.6038 79.4226 30.6038Z" fill="#7F94A8"/>
<path fill-rule="evenodd" clip-rule="evenodd" d="M92.0516 29.3137C93.6275 30.1002 95.4401 30.4929 97.4911 30.4929C99.1165 30.4929 100.566 30.2351 101.842 29.7193C102.954 29.2777 103.92 28.6569 104.74 27.856C104.975 27.6267 104.961 27.2559 104.726 27.0261L102.202 24.5465C101.946 24.2948 101.529 24.3112 101.261 24.5503C100.832 24.9328 100.362 25.2311 99.8536 25.4451C99.1786 25.7399 98.3911 25.8873 97.4911 25.8873C96.5407 25.8873 95.7406 25.7031 95.0908 25.3346C94.4402 24.9662 93.9398 24.4257 93.5897 23.7134C93.5041 23.533 93.4285 23.3437 93.3639 23.1457L105.742 23.0892C106.029 23.0879 106.281 22.8961 106.338 22.6198C106.4 22.3182 106.438 22.044 106.455 21.7974C106.505 21.4044 106.53 21.0237 106.53 20.6552C106.53 18.9112 106.118 17.3636 105.292 16.0126C104.492 14.637 103.367 13.5685 101.916 12.807C100.492 12.021 98.8537 11.6279 97.0033 11.6279C95.1026 11.6279 93.3899 12.0455 91.8644 12.8807C90.3641 13.6913 89.1762 14.809 88.3013 16.2337C87.4257 17.6338 86.9883 19.2427 86.9883 21.0605C86.9883 22.9028 87.4383 24.5363 88.3391 25.961C89.2391 27.3859 90.4766 28.5032 92.0516 29.3137ZM93.3504 19.0072C93.4092 18.8238 93.4755 18.6484 93.5528 18.4813C93.8777 17.7689 94.3403 17.2162 94.9405 16.8232C95.54 16.4302 96.2528 16.2337 97.078 16.2337C97.8781 16.2337 98.5406 16.4056 99.0661 16.7495C99.5908 17.0934 99.9913 17.597 100.267 18.2602C100.357 18.47 100.434 18.6996 100.497 18.949L93.3504 19.0072Z" fill="#7F94A8"/>
<path d="M98.7896 9.06863V4.31308H100.02V9.06863H98.7896ZM97.2969 5.31959V4.2793H101.512V5.31959H97.2969ZM101.728 9.06863V4.2793H102.615L104.486 7.05562H104.066L105.93 4.2793H106.817V9.06863H105.6V6.27881L105.792 6.33285L104.672 7.98783H103.874L102.76 6.33285L102.952 6.27881V9.06863H101.728Z" fill="#7F94A8"/>
<path d="M9.39168 1.76594C9.39168 1.40027 9.66882 1.0919 10.0381 1.04651L14.4664 0.502775C14.9069 0.448691 15.2959 0.786065 15.2959 1.22216V15.5297C15.2959 15.9659 14.9069 16.3033 14.4664 16.2491L10.0381 15.7054C9.66882 15.66 9.39168 15.3516 9.39168 14.986V1.76594Z" fill="#7F94A8"/>
<path d="M0.535156 3.57846C0.535156 3.21284 0.812314 2.90441 1.18165 2.85907L5.60987 2.31533C6.05041 2.26121 6.43947 2.59863 6.43947 3.03472V14.4422C6.43947 14.8784 6.05041 15.2158 5.60987 15.1617L1.18165 14.6179C0.812314 14.5726 0.535156 14.2641 0.535156 13.8985V3.57846Z" fill="#7F94A8"/>
<path d="M23.5934 1.71369C23.9216 1.79441 24.1524 2.08438 24.1524 2.41705V8.46102C24.1524 8.82667 23.8751 9.13504 23.5057 9.1804L19.0776 9.72422C18.637 9.77824 18.248 9.44084 18.248 9.00473V1.32954C18.248 0.857892 18.6993 0.511819 19.165 0.626182L23.5934 1.71369Z" fill="#7F94A8"/>
<path d="M32.2707 4.22961C32.2707 3.89694 32.0399 3.60693 31.7117 3.52627L27.2835 2.43875C26.8175 2.32434 26.3662 2.67041 26.3662 3.1421V8.64229C26.3662 9.07838 26.7553 9.41577 27.1959 9.36175L31.624 8.81793C31.9934 8.77257 32.2707 8.46418 32.2707 8.09855V4.22961Z" fill="#7F94A8"/>
<path d="M32.2709 11.6384L17.8791 12.0009C18.0873 14.66 20.3445 16.7134 23.0594 16.7134H26.3663V19.7989L0.535156 17.4384V32.5531L32.2709 30.3784V11.6384Z" fill="#7F94A8"/>
</g>
<defs>
<clipPath id="clip0_309_52714">
<rect width="106.623" height="32.1644" fill="white" transform="translate(0.535156 0.49707)"/>
</clipPath>
</defs>
</svg>
