<svg width="187" height="39" viewBox="0 0 187 39" fill="none" xmlns="http://www.w3.org/2000/svg">
<g clip-path="url(#clip0_309_52742)">
<path d="M0.412109 25.7417L13.6897 19.9365L21.3321 24.2904L22.876 38.5742L13.4582 38.4978L14.8477 28.5679L13.2265 27.6513L5.27543 33.762L0.412109 25.7417Z" fill="#7F94A8"/>
<path d="M22.1816 23.6786L33.9153 32.1572L38.5471 23.9841L29.1292 20.2413V18.4081L38.5471 14.5889L33.9153 6.49219L22.1816 14.9708V23.6786Z" fill="#7F94A8"/>
<path d="M21.3321 14.2838L22.876 0L13.4581 0.152766L14.8477 10.0826L13.2266 10.9992L5.19824 4.88857L0.412109 12.8325L13.6898 18.6376L21.3321 14.2838Z" fill="#7F94A8"/>
<path d="M69.9674 17.5745V30.9563H75.0357V13.9023H67.6543V17.5745H69.9674Z" fill="#7F94A8"/>
<path d="M69.8078 11.5068C70.2725 11.9839 70.9801 12.2224 71.9306 12.2224C72.8809 12.2224 73.5778 11.9839 74.0212 11.5068C74.4858 11.0087 74.718 10.3863 74.718 9.63961C74.718 8.87187 74.4858 8.24945 74.0212 7.77234C73.5778 7.27446 72.8809 7.02539 71.9306 7.02539C70.9801 7.02539 70.2725 7.27446 69.8078 7.77234C69.3645 8.24945 69.1426 8.87187 69.1426 9.63961C69.1426 10.3863 69.3645 11.0087 69.8078 11.5068Z" fill="#7F94A8"/>
<path d="M52.3212 30.5828C53.7573 31.226 55.5208 31.5477 57.6114 31.5477C59.5755 31.5477 61.2651 31.2468 62.6802 30.6452C64.0954 30.0436 65.183 29.2031 65.9431 28.1245C66.7247 27.0247 67.1155 25.7488 67.1155 24.2965C67.1155 22.8858 66.7461 21.6928 66.0069 20.7177C65.2886 19.7219 64.2857 18.9438 62.9971 18.3838C61.7089 17.8027 60.2198 17.4397 58.5302 17.2946L56.7564 17.139C55.7004 17.0558 54.9398 16.7759 54.475 16.2986C54.0108 15.8215 53.7782 15.2612 53.7782 14.6183C53.7782 14.1201 53.9052 13.6638 54.1582 13.2489C54.4118 12.8132 54.7918 12.4709 55.2989 12.2218C55.8269 11.973 56.4712 11.8485 57.2313 11.8485C58.0338 11.8485 58.699 11.9936 59.227 12.2842C59.3434 12.3456 59.4536 12.4112 59.5577 12.4809L59.5826 12.4982C59.6214 12.5245 59.6597 12.5518 59.6964 12.5794C60.0173 12.8202 60.2729 13.1056 60.4626 13.4355C60.7371 13.8921 60.8748 14.4003 60.8748 14.9605H65.9431C65.9431 13.4666 65.5947 12.17 64.8978 11.0705C64.201 9.95015 63.1981 9.08922 61.8885 8.48733C60.5999 7.86492 59.0475 7.55371 57.2313 7.55371C55.4994 7.55371 54.0001 7.84438 52.7329 8.42523C51.4657 8.98547 50.4729 9.79452 49.7552 10.8525C49.0578 11.9106 48.7094 13.1659 48.7094 14.6183C48.7094 16.6306 49.396 18.2487 50.7688 19.4731C52.1416 20.6971 53.9792 21.4024 56.281 21.5891L58.0236 21.7447C59.4383 21.8692 60.4626 22.1494 61.0962 22.5848C61.7298 22.9998 62.0466 23.5704 62.0466 24.2965C62.0466 24.6302 61.991 24.9432 61.8798 25.2357C61.7972 25.4527 61.6839 25.6584 61.5401 25.8526C61.2018 26.2883 60.7055 26.6305 60.051 26.8796C59.3965 27.1284 58.5833 27.253 57.6114 27.253C56.5345 27.253 55.6581 27.1079 54.9821 26.8173C54.3062 26.506 53.7996 26.1016 53.4614 25.6038C53.1446 25.1056 52.9865 24.5663 52.9865 23.9853H47.9492C47.9492 25.4584 48.3185 26.7654 49.0578 27.9065C49.797 29.027 50.8851 29.9191 52.3212 30.5828Z" fill="#7F94A8"/>
<path d="M86.3441 31.1744C84.5911 31.1744 83.1762 30.9669 82.0993 30.552C81.0218 30.1163 80.2301 29.4006 79.723 28.4049C79.2373 27.3881 78.9946 26.0189 78.9946 24.2967V17.5437H76.3652V13.9027H78.9946V9.29688H83.7149V13.9027H88.7838V17.5437H83.7149V24.4837C83.7149 25.2927 83.9261 25.9152 84.3486 26.3506C84.7918 26.7656 85.4147 26.973 86.2173 26.973H88.7838V31.1744H86.3441Z" fill="#7F94A8"/>
<path fill-rule="evenodd" clip-rule="evenodd" d="M94.8874 30.8012C96.0275 31.2991 97.3372 31.5482 98.8157 31.5482C100.272 31.5482 101.561 31.2991 102.68 30.8012C103.8 30.3033 104.73 29.6083 105.468 28.7162C106.208 27.8239 106.704 26.8074 106.957 25.6663H102.301C102.089 26.185 101.688 26.6208 101.097 26.9732C100.505 27.3261 99.7442 27.5025 98.8157 27.5025C98.2397 27.5025 97.7251 27.4356 97.2726 27.3017C96.9275 27.2 96.6186 27.0595 96.344 26.88C95.711 26.4651 95.2459 25.884 94.9504 25.1373C94.8689 24.9246 94.7984 24.7021 94.7388 24.4704C94.6792 24.2356 94.6305 23.9913 94.5936 23.7369H107.274V22.0564C107.274 20.5004 106.936 19.0688 106.26 17.7618C105.584 16.4339 104.602 15.3654 103.314 14.5563C102.047 13.7264 100.484 13.3115 98.6251 13.3115C97.2105 13.3115 95.9427 13.5605 94.8236 14.0584C93.7255 14.5355 92.807 15.189 92.0682 16.0189C91.3285 16.8488 90.7585 17.7929 90.3572 18.8511C89.9768 19.8882 89.7871 20.9774 89.7871 22.1185V22.7409C89.7871 23.8407 89.9768 24.9193 90.3572 25.9775C90.7585 27.0149 91.3285 27.9588 92.0682 28.8094C92.828 29.6393 93.7674 30.3033 94.8874 30.8012ZM94.6809 20.6597C94.6951 20.5938 94.7103 20.5289 94.7262 20.465C94.7699 20.2891 94.8202 20.1205 94.8782 19.9593C94.9109 19.8676 94.9453 19.7781 94.9823 19.6912C95.2988 18.9235 95.7639 18.3427 96.3759 17.9485C96.6051 17.8012 96.8528 17.6814 97.1198 17.5892C97.5681 17.4346 98.0702 17.3571 98.6251 17.3571C99.4915 17.3571 100.209 17.5543 100.779 17.9485C101.371 18.3218 101.815 18.8716 102.11 19.5978C102.134 19.6564 102.157 19.716 102.179 19.7764C102.213 19.8727 102.246 19.9714 102.276 20.0726C102.322 20.2232 102.36 20.379 102.395 20.5402C102.42 20.659 102.442 20.7804 102.46 20.905H94.6322C94.6473 20.8218 94.6632 20.7401 94.6809 20.6597Z" fill="#7F94A8"/>
<path d="M109.365 30.957V13.903H113.388V18.1983C113.443 17.9429 113.506 17.6978 113.576 17.4628C113.634 17.2648 113.699 17.0739 113.769 16.8905C114.213 15.7286 114.878 14.8574 115.764 14.2764C116.652 13.6747 117.739 13.374 119.028 13.374H119.249C120.559 13.374 121.646 13.6747 122.513 14.2764C123.399 14.8574 124.065 15.7286 124.508 16.8905L124.543 16.9783L124.573 17.0584C124.593 17.0018 124.614 16.9459 124.635 16.8905C125.099 15.7286 125.775 14.8574 126.663 14.2764C127.549 13.6747 128.637 13.374 129.926 13.374H130.148C131.456 13.374 132.555 13.6747 133.442 14.2764C134.35 14.8574 135.037 15.7286 135.501 16.8905C135.966 18.0524 136.198 19.5047 136.198 21.2474V30.957H131.13V20.9673C131.13 20.0336 130.876 19.2764 130.369 18.6956C129.883 18.1146 129.186 17.8241 128.279 17.8241C127.37 17.8241 126.652 18.125 126.124 18.7267C125.596 19.3075 125.332 20.0855 125.332 21.0607V30.957H120.232V20.9673C120.232 20.0336 119.978 19.2764 119.471 18.6956C118.986 18.1146 118.299 17.8241 117.412 17.8241C116.483 17.8241 115.754 18.125 115.226 18.7267C114.698 19.3075 114.434 20.0855 114.434 21.0607V30.957H109.365Z" fill="#7F94A8"/>
<path fill-rule="evenodd" clip-rule="evenodd" d="M149.739 27.6712V30.9572H153.761V20.5007C153.761 18.9238 153.444 17.6377 152.811 16.6416C152.178 15.6251 151.248 14.8679 150.023 14.37C148.819 13.8721 147.33 13.623 145.557 13.623C145.172 13.623 144.77 13.6271 144.352 13.6353C144.104 13.6404 143.851 13.6466 143.592 13.6541C142.895 13.6749 142.22 13.706 141.565 13.7476L141.064 13.7807C140.807 13.7982 140.566 13.8155 140.339 13.833C140.169 13.8461 140.007 13.8591 139.855 13.8721V18.0734C140.509 18.0318 141.237 17.9902 142.04 17.9488C142.265 17.9374 142.487 17.9266 142.708 17.9166C143.026 17.902 143.341 17.8895 143.653 17.8785C143.899 17.8697 144.142 17.8619 144.384 17.8554C145.145 17.8346 145.757 17.8243 146.222 17.8243C147.151 17.8243 147.827 18.0421 148.249 18.4778C148.672 18.9136 148.883 19.567 148.883 20.4385V20.5007H145.747C144.204 20.5007 142.843 20.6979 141.66 21.092C140.477 21.4654 139.558 22.0567 138.903 22.8658C138.248 23.6543 137.922 24.6709 137.922 25.9157C137.922 27.0568 138.185 28.0423 138.714 28.8722C139.242 29.6813 139.97 30.3037 140.9 30.7391C141.85 31.1749 142.948 31.3929 144.194 31.3929C145.398 31.3929 146.411 31.1749 147.235 30.7391C148.08 30.3037 148.734 29.6813 149.2 28.8722C149.281 28.7359 149.357 28.5943 149.429 28.4475C149.529 28.2395 149.619 28.021 149.698 27.792L149.739 27.6712ZM148.883 24.6399V23.2705H145.715C144.827 23.2705 144.141 23.4882 143.656 23.9239C143.191 24.3389 142.958 24.9095 142.958 25.6356C142.958 25.9773 143.016 26.2881 143.132 26.568C143.249 26.8486 143.423 27.0979 143.656 27.3162C144.141 27.7311 144.827 27.9385 145.715 27.9385C145.883 27.9385 146.047 27.9303 146.204 27.914C146.333 27.9008 146.458 27.882 146.579 27.8576C146.812 27.8113 147.03 27.7449 147.235 27.6585C147.7 27.4509 148.08 27.1087 148.376 26.6313C148.672 26.1542 148.84 25.4902 148.883 24.6399Z" fill="#7F94A8"/>
<path d="M156.795 30.9564V13.9024H160.819V19.5314C161.012 17.9245 161.497 16.6288 162.276 15.645C163.333 14.3381 164.853 13.6846 166.838 13.6846H167.503V17.9791H166.236C164.842 17.9791 163.765 18.3525 163.005 19.0994C162.244 19.8256 161.864 20.8837 161.864 22.2736V30.9564H156.795Z" fill="#7F94A8"/>
<path d="M173.93 22.9903H175.609L181.089 30.9571H186.792L179.843 21.1729L185.556 13.9032H180.234L173.93 22.0121V8.23926H168.861V30.9571H173.93V22.9903Z" fill="#7F94A8"/>
</g>
<defs>
<clipPath id="clip0_309_52742">
<rect width="186.381" height="38.7623" fill="white" transform="translate(0.412109)"/>
</clipPath>
</defs>
</svg>
