<svg width="121" height="33" viewBox="0 0 121 33" fill="none" xmlns="http://www.w3.org/2000/svg">
<g clip-path="url(#clip0_309_52705)">
<path d="M64.0901 15.8608C63.3338 16.583 62.9558 17.6355 62.9558 19.0181V27.6545H57.9141V10.6913H61.9161V16.2892C62.1075 14.6914 62.5909 13.4031 63.3655 12.4248C64.4157 11.1247 65.9283 10.4746 67.9028 10.4746H68.5647V14.7464H67.3044C65.918 14.7464 64.8463 15.1178 64.0901 15.8608Z" fill="#7F94A8"/>
<path fill-rule="evenodd" clip-rule="evenodd" d="M79.3721 25.5811C79.5886 25.2204 79.767 24.8223 79.9079 24.387V27.6548H83.9099V17.254C83.9099 15.6857 83.5945 14.4063 82.9644 13.4157C82.3342 12.4045 81.4098 11.6513 80.1915 11.1559C78.9942 10.6607 77.5129 10.4131 75.7485 10.4131C75.139 10.4131 74.4877 10.4234 73.7945 10.444C73.1013 10.4646 72.4291 10.4956 71.7779 10.5369C71.1267 10.5781 70.5596 10.6194 70.0761 10.6607V14.8396C70.7273 14.7983 71.4523 14.757 72.2506 14.7158C73.049 14.6745 73.8262 14.6435 74.5826 14.6229C75.3389 14.6023 75.948 14.5919 76.41 14.5919C77.3345 14.5919 78.0066 14.8086 78.4267 15.242C78.847 15.6754 79.0568 16.3254 79.0568 17.1922V17.254H75.9373C74.4037 17.254 73.049 17.4501 71.8723 17.8422C70.696 18.2137 69.7823 18.8018 69.1311 19.6067C68.4799 20.3908 68.1543 21.402 68.1543 22.6401C68.1543 23.7753 68.4168 24.7555 68.9419 25.5811C69.4669 26.3859 70.192 27.005 71.116 27.4382C72.0614 27.8714 73.1541 28.0884 74.3934 28.0884C75.5906 28.0884 76.5992 27.8714 77.4185 27.4382C78.2589 27.005 78.9101 26.3859 79.3721 25.5811ZM78.5528 23.3523C78.847 22.8773 79.0152 22.2172 79.0568 21.3711V20.0091H75.906C75.0235 20.0091 74.3406 20.2257 73.8576 20.6591C73.3956 21.0718 73.1643 21.6394 73.1643 22.3616C73.1643 23.0425 73.3956 23.5996 73.8576 24.0332C74.3406 24.4458 75.0235 24.6523 75.906 24.6523C76.4731 24.6523 76.9771 24.5596 77.4185 24.3738C77.8805 24.1673 78.2589 23.8267 78.5528 23.3523Z" fill="#7F94A8"/>
<path d="M94.3639 28.2421C92.8728 28.2421 91.5699 28.0048 90.4566 27.53C89.3643 27.0348 88.4501 26.3744 87.7146 25.5489C86.9792 24.7234 86.4335 23.795 86.0767 22.763C85.719 21.7106 85.541 20.6272 85.541 19.5128V18.9247C85.541 17.769 85.7299 16.665 86.1077 15.6125C86.4864 14.5394 87.043 13.5901 87.7776 12.7647C88.513 11.9391 89.4273 11.2891 90.5196 10.8144C91.6328 10.3398 92.9039 10.1025 94.332 10.1025C95.8868 10.1025 97.2629 10.4018 98.4601 11.0003C99.6573 11.578 100.614 12.3931 101.328 13.4457C102.042 14.4981 102.441 15.7053 102.525 17.0674H97.5777C97.4938 16.3038 97.1789 15.6641 96.6332 15.1481C96.1076 14.6117 95.3411 14.3434 94.332 14.3434C93.4916 14.3434 92.7881 14.5497 92.2214 14.9624C91.6748 15.3752 91.2651 15.9427 90.9922 16.665C90.7185 17.3873 90.5825 18.2437 90.5825 19.2342C90.5825 20.1422 90.7085 20.9677 90.9603 21.7106C91.213 22.4329 91.6118 23.0002 92.1584 23.4133C92.7251 23.8052 93.4605 24.0011 94.3639 24.0011C95.0364 24.0011 95.6031 23.8877 96.0657 23.6606C96.5484 23.4133 96.9271 23.0829 97.1999 22.6703C97.4938 22.2369 97.6726 21.7416 97.7355 21.1843H102.651C102.588 22.5877 102.189 23.8258 101.454 24.8991C100.718 25.9514 99.7421 26.7769 98.523 27.3753C97.3049 27.9531 95.9188 28.2421 94.3639 28.2421Z" fill="#7F94A8"/>
<path fill-rule="evenodd" clip-rule="evenodd" d="M108.302 27.4992C109.436 27.9943 110.738 28.2421 112.209 28.2421C113.659 28.2421 114.94 27.9943 116.054 27.4992C117.167 27.004 118.091 26.3125 118.827 25.425C119.562 24.538 120.056 23.5266 120.308 22.3917H115.676C115.466 22.9075 115.066 23.3408 114.479 23.6918C113.89 24.0424 113.134 24.2181 112.209 24.2181C111.201 24.2181 110.382 24.0117 109.752 23.5987C109.121 23.1861 108.659 22.6082 108.365 21.8654C108.201 21.4396 108.083 20.9752 108.01 20.4724H120.622V18.8009C120.622 17.2531 120.287 15.8292 119.614 14.5291C118.942 13.2084 117.965 12.1456 116.684 11.3407C115.424 10.5152 113.869 10.1025 112.02 10.1025C110.612 10.1025 109.352 10.3502 108.239 10.8455C107.147 11.3201 106.232 11.9701 105.498 12.7956C104.762 13.6211 104.195 14.56 103.796 15.6125C103.417 16.6443 103.229 17.7277 103.229 18.8627V19.4819C103.229 20.5756 103.417 21.6487 103.796 22.7011C104.195 23.7331 104.762 24.672 105.498 25.5181C106.253 26.3437 107.189 27.004 108.302 27.4992ZM108.048 17.6555C108.127 17.2117 108.243 16.8093 108.397 16.4483C108.712 15.6847 109.173 15.1069 109.783 14.7148C110.392 14.3227 111.138 14.1266 112.02 14.1266C112.882 14.1266 113.595 14.3227 114.163 14.7148C114.751 15.0862 115.192 15.6331 115.487 16.3554C115.646 16.7465 115.761 17.1798 115.835 17.6555H108.048Z" fill="#7F94A8"/>
<path d="M45.9093 27.6546V9.48414H39.4492V5.05762H57.568V9.48414H51.0767V27.6546H45.9093Z" fill="#7F94A8"/>
<path fill-rule="evenodd" clip-rule="evenodd" d="M15.9033 3.50453C8.7171 3.50453 2.89148 9.22722 2.89148 16.2865C2.89148 23.3458 8.7171 29.0687 15.9033 29.0687C23.0896 29.0687 28.9149 23.3458 28.9149 16.2865C28.9149 9.22722 23.0896 3.50453 15.9033 3.50453ZM0 16.2865C0 7.65847 7.12014 0.664062 15.9033 0.664062C24.6863 0.664062 31.8064 7.65847 31.8064 16.2865C31.8064 24.9147 24.6863 31.9092 15.9033 31.9092C7.12014 31.9092 0 24.9147 0 16.2865Z" fill="#7F94A8"/>
<path fill-rule="evenodd" clip-rule="evenodd" d="M23.8382 10.9892C24.2621 9.67775 22.996 8.44598 21.6651 8.87496L12.5996 11.7971C12.0749 11.9662 11.6649 12.3729 11.4977 12.89L8.68872 21.5821C8.26491 22.8937 9.53096 24.1253 10.8618 23.6964L19.9273 20.7743C20.4521 20.6052 20.8621 20.1985 21.0293 19.6814L23.8382 10.9892ZM16.2618 18.3145C17.4025 18.3145 18.3271 17.4061 18.3271 16.2856C18.3271 15.1651 17.4025 14.2567 16.2618 14.2567C15.1212 14.2567 14.1965 15.1651 14.1965 16.2856C14.1965 17.4061 15.1212 18.3145 16.2618 18.3145Z" fill="#7F94A8"/>
</g>
<defs>
<clipPath id="clip0_309_52705">
<rect width="120.896" height="31.3397" fill="white" transform="translate(0 0.664062)"/>
</clipPath>
</defs>
</svg>
