<svg width="155" height="39" viewBox="0 0 155 39" fill="none" xmlns="http://www.w3.org/2000/svg">
<g clip-path="url(#clip0_309_52723)">
<path d="M52.9328 29.9401C54.4819 30.6903 56.3363 31.0653 58.4962 31.0653C60.7652 31.0653 62.7178 30.6474 64.3541 29.8115C65.9904 28.9756 67.2776 27.8612 68.2158 26.4681C69.1539 25.0751 69.732 23.5427 69.9502 21.871H65.2704C65.0087 23.4355 64.2559 24.6572 63.0124 25.5359C61.7906 26.3932 60.2852 26.8218 58.4962 26.8218C57.2744 26.8218 56.1945 26.6182 55.2564 26.211C54.3401 25.8037 53.5655 25.2358 52.9328 24.5072C52.3001 23.757 51.8202 22.8891 51.4929 21.9032C51.1875 20.9173 51.0348 19.8457 51.0348 18.6884C51.0348 17.4882 51.1875 16.3952 51.4929 15.4093C51.8202 14.4235 52.2892 13.5662 52.9002 12.8375C53.511 12.1089 54.2746 11.5516 55.1909 11.1659C56.1073 10.7586 57.1545 10.555 58.3326 10.555C59.4889 10.555 60.5252 10.7479 61.4416 11.1337C62.3578 11.498 63.1105 12.0553 63.6996 12.8053C64.3105 13.5341 64.7032 14.4342 64.8777 15.5058H69.5575C69.3612 13.6627 68.783 12.0553 67.823 10.6837C66.8631 9.29052 65.5759 8.21896 63.9614 7.46884C62.3688 6.6973 60.4925 6.31152 58.3326 6.31152C56.26 6.31152 54.4601 6.66515 52.9328 7.3724C51.4275 8.05822 50.1839 8.97976 49.2021 10.1371C48.2203 11.2944 47.4895 12.5804 47.0095 13.9949C46.5514 15.4093 46.3223 16.8453 46.3223 18.3027V19.0099C46.3223 20.3172 46.5514 21.6781 47.0095 23.0926C47.4677 24.5072 48.1768 25.8145 49.1367 27.0147C50.1185 28.2148 51.3839 29.19 52.9328 29.9401Z" fill="#7F94A8"/>
<path fill-rule="evenodd" clip-rule="evenodd" d="M82.0863 28.3328C82.3113 27.9583 82.4967 27.5449 82.6427 27.0928V30.4546H86.2425V19.6208C86.2425 17.992 85.926 16.6739 85.2938 15.6666C84.6826 14.6594 83.7663 13.9199 82.5445 13.4484C81.3446 12.9769 79.8283 12.7412 77.9956 12.7412C77.4066 12.7412 76.7739 12.7519 76.0975 12.7733C75.443 12.7733 74.7994 12.7947 74.1667 12.8376C73.534 12.8805 72.9668 12.9233 72.465 12.9662V16.7596C73.0759 16.7168 73.7632 16.6847 74.5267 16.6632C75.3121 16.6203 76.0866 16.5882 76.8502 16.5668C77.6139 16.5454 78.2684 16.5346 78.8138 16.5346C79.861 16.5346 80.6355 16.7811 81.1373 17.274C81.6391 17.7669 81.89 18.517 81.89 19.5244V19.6851H78.2575C76.6866 19.6851 75.3121 19.8887 74.134 20.2959C72.9777 20.7031 72.0723 21.3139 71.4178 22.1284C70.7851 22.9427 70.4688 23.9929 70.4688 25.2788C70.4688 26.4575 70.7305 27.4649 71.2542 28.3007C71.7996 29.1365 72.5523 29.7795 73.5122 30.2296C74.494 30.6796 75.6285 30.9046 76.9157 30.9046C78.1592 30.9046 79.2065 30.6904 80.0574 30.2617C80.93 29.8116 81.6064 29.1687 82.0863 28.3328ZM81.2682 26.2433C81.6391 25.686 81.8464 24.9359 81.89 23.9929V22.3533H78.192C77.1448 22.3533 76.3376 22.6105 75.7703 23.1249C75.2248 23.6178 74.9521 24.2608 74.9521 25.0538C74.9521 25.8467 75.2248 26.4897 75.7703 26.9826C76.3376 27.4756 77.1448 27.722 78.192 27.722C78.8247 27.722 79.4029 27.6149 79.9264 27.4005C80.4719 27.1648 80.9191 26.779 81.2682 26.2433Z" fill="#7F94A8"/>
<path d="M97.3663 31.0665C95.8173 31.0665 94.4757 30.8093 93.3406 30.2949C92.2282 29.7806 91.2904 29.0948 90.5264 28.2375C89.7851 27.3802 89.2285 26.4158 88.8574 25.3442C88.4863 24.2726 88.3008 23.1796 88.3008 22.0651V21.4543C88.3008 20.2756 88.4863 19.1504 88.8574 18.0788C89.2503 16.9858 89.8288 16.0214 90.5919 15.1855C91.3559 14.3283 92.2937 13.6531 93.4061 13.1602C94.5412 12.6458 95.8501 12.3887 97.3335 12.3887C98.8825 12.3887 100.268 12.6887 101.489 13.2888C102.712 13.8675 103.682 14.6818 104.403 15.732C105.144 16.7822 105.559 18.0038 105.646 19.3969H101.227C101.119 18.4967 100.726 17.7466 100.05 17.1465C99.3955 16.5465 98.4896 16.2464 97.3335 16.2464C96.3303 16.2464 95.4899 16.4821 94.8132 16.9536C94.1592 17.4251 93.6681 18.0788 93.3406 18.9147C93.014 19.7291 92.8503 20.6721 92.8503 21.7437C92.8503 22.7723 93.0031 23.7047 93.3079 24.5405C93.6353 25.3763 94.1264 26.03 94.7805 26.5015C95.4571 26.973 96.3194 27.2088 97.3663 27.2088C98.1513 27.2088 98.828 27.0694 99.3955 26.7908C99.9622 26.5122 100.41 26.1264 100.737 25.6335C101.086 25.1406 101.304 24.5834 101.391 23.9618H105.81C105.722 25.3763 105.297 26.6194 104.533 27.691C103.791 28.7412 102.799 29.5663 101.555 30.1664C100.333 30.7664 98.9371 31.0665 97.3663 31.0665Z" fill="#7F94A8"/>
<path d="M111.481 30.0692C112.55 30.4763 113.902 30.68 115.539 30.68H118.092V26.8544H115.31C114.437 26.8544 113.761 26.6293 113.281 26.1793C112.823 25.7078 112.594 25.0434 112.594 24.1861L112.61 16.2777H118.092V12.9987H112.616L112.626 8.08008H108.372L108.362 12.9987H105.525V16.2777H108.356L108.34 23.8967C108.34 25.5899 108.602 26.9401 109.125 27.9474C109.648 28.9333 110.434 29.6405 111.481 30.0692Z" fill="#7F94A8"/>
<path d="M126.328 31.0017C124.277 31.0017 122.684 30.3373 121.55 29.0085C120.437 27.6798 119.881 25.708 119.881 23.0933V12.9668H124.43V23.4791C124.43 24.5507 124.735 25.408 125.346 26.051C125.957 26.6725 126.785 26.9832 127.833 26.9832C128.88 26.9832 129.731 26.651 130.385 25.9866C131.062 25.3222 131.4 24.4221 131.4 23.2862V12.9668H135.949V30.4552H132.349V26.3902C132.258 26.76 132.148 27.1077 132.022 27.4333C131.563 28.6121 130.877 29.5015 129.96 30.1015C129.044 30.7017 127.899 31.0017 126.523 31.0017H126.328Z" fill="#7F94A8"/>
<path d="M140.226 29.4915C141.622 30.4988 143.542 31.0025 145.986 31.0025C147.557 31.0025 148.92 30.7667 150.076 30.2952C151.232 29.8237 152.127 29.17 152.759 28.3342C153.414 27.4769 153.742 26.4696 153.742 25.3123C153.742 23.7478 153.141 22.5047 151.942 21.5832C150.764 20.6616 149.128 20.0936 147.033 19.8794L145.462 19.7186C144.502 19.6114 143.804 19.4079 143.367 19.1078C142.953 18.8077 142.746 18.3791 142.746 17.8219C142.746 17.2432 143.007 16.7717 143.531 16.4074C144.055 16.0431 144.796 15.8609 145.757 15.8609C146.825 15.8609 147.644 16.0752 148.211 16.5038C148.778 16.9325 149.084 17.4468 149.128 18.0469H153.218C153.152 16.2252 152.444 14.8428 151.09 13.8998C149.738 12.9568 147.971 12.4854 145.789 12.4854C144.393 12.4854 143.149 12.6997 142.058 13.1283C140.99 13.5356 140.149 14.1464 139.539 14.9608C138.928 15.7752 138.622 16.7824 138.622 17.9827C138.622 19.4828 139.157 20.6831 140.226 21.5832C141.295 22.4833 142.822 23.0406 144.807 23.2548L146.378 23.4156C147.557 23.5228 148.385 23.7478 148.866 24.0907C149.368 24.4336 149.618 24.8944 149.618 25.473C149.618 26.1374 149.291 26.6625 148.636 27.0483C148.003 27.4341 147.142 27.627 146.051 27.627C144.742 27.627 143.782 27.3804 143.171 26.8876C142.561 26.3947 142.222 25.8481 142.157 25.248H138.066C138.131 27.0483 138.851 28.4628 140.226 29.4915Z" fill="#7F94A8"/>
<path fill-rule="evenodd" clip-rule="evenodd" d="M20.5302 0C9.68679 0 0.896484 8.63508 0.896484 19.287C0.896484 29.939 9.68679 38.5741 20.5302 38.5741C31.3737 38.5741 40.164 29.939 40.164 19.287C40.164 8.63508 31.3737 0 20.5302 0ZM5.29903 19.287C5.29903 11.0237 12.1183 4.3248 20.5302 4.3248C28.9422 4.3248 35.7614 11.0237 35.7614 19.287C35.7614 26.8284 30.0818 33.0667 22.6954 34.0992V30.7988L26.6047 29.3812C28.864 28.5619 30.3645 26.4465 30.3645 24.0807V17.5823C30.3645 16.3881 29.379 15.42 28.1632 15.42C26.9474 15.42 25.962 16.3881 25.962 17.5823V24.0807C25.962 24.6356 25.61 25.1318 25.08 25.324L22.6954 26.1888V9.07235C22.6954 7.87812 21.7098 6.90998 20.494 6.90998C19.2783 6.90998 18.2928 7.87812 18.2928 9.07235V18.3506L15.9793 17.5116C15.4493 17.3194 15.0974 16.8232 15.0974 16.2683V13.4669C15.0974 12.2727 14.1118 11.3046 12.8962 11.3046C11.6804 11.3046 10.6948 12.2727 10.6948 13.4669V16.2683C10.6948 18.6341 12.1953 20.7494 14.4546 21.5687L18.2928 22.9606V34.0889C10.9416 33.0259 5.29903 26.8038 5.29903 19.287Z" fill="#7F94A8"/>
</g>
<defs>
<clipPath id="clip0_309_52723">
<rect width="153.639" height="38.7623" fill="white" transform="translate(0.896484)"/>
</clipPath>
</defs>
</svg>
